# xmcd CD database file
#
# Track frame offsets:
#	182
#	11255
#	24415
#	52310
#	76112
#	92780
#	114147
#	136455
#
# Disc length: 1963 seconds
#
# Revision: 0
# Processed by: cddbd v1.4PL0 Copyright (c) Steve Scherf et al.
# Submitted via: CDex 1.50Beta7
#
DISCID=5707a908
DTITLE=ray barreto - latino con soul
DYEAR=1990
DGENRE=Salsa
TTITLE0=do you dig it?
TTITLE1=eras
TTITLE2=rompeta y trombon
TTITLE3=boogaloo con soul
TTITLE4=el picor
TTITLE5=lo mismo que a usted
TTITLE6=fuego y pa'lante
TTITLE7=happy birthday everybody
EXTD=YEAR: 1990
EXTT0=
EXTT1=
EXTT2=
EXTT3=
EXTT4=
EXTT5=
EXTT6=
EXTT7=
PLAYORDER=
